<svg width="25" height="25" viewBox="0 0 25 25" fill="none" xmlns="http://www.w3.org/2000/svg">
<g clip-path="url(#clip0_3456_17473)">
<path d="M13.7295 17.2014C13.7304 17.0673 13.7034 16.9345 13.6502 16.8114C13.597 16.6884 13.5187 16.5777 13.4204 16.4866L7.45073 10.9805L1.48102 16.4866C1.3827 16.5777 1.30445 16.6884 1.25123 16.8114C1.19801 16.9345 1.171 17.0673 1.1719 17.2014V22.5722C1.1719 22.8284 1.27368 23.0741 1.45483 23.2552C1.63599 23.4364 1.88169 23.5382 2.13788 23.5382H12.7635C13.0197 23.5382 13.2654 23.4364 13.4466 23.2552C13.6277 23.0741 13.7295 22.8284 13.7295 22.5722V17.2014Z" stroke="black" stroke-width="1.5" stroke-linecap="round" stroke-linejoin="round"/>
<path d="M17.1493 8.15407C19.0375 8.15407 20.5681 6.6234 20.5681 4.73523C20.5681 2.84707 19.0375 1.31641 17.1493 1.31641C15.2611 1.31641 13.7305 2.84707 13.7305 4.73523C13.7305 6.6234 15.2611 8.15407 17.1493 8.15407Z" stroke="black" stroke-width="1.5" stroke-linecap="round" stroke-linejoin="round"/>
<path d="M16.5757 23.5391H19.7136L20.5683 16.7014H23.1324V14.1373C23.1324 12.5505 22.502 11.0287 21.38 9.90667C20.258 8.78464 18.7362 8.1543 17.1494 8.1543C15.5627 8.1543 14.0409 8.78464 12.9188 9.90667C12.605 10.2205 12.3296 10.5657 12.0957 10.9348" stroke="black" stroke-width="1.5" stroke-linecap="round" stroke-linejoin="round"/>
<path d="M7.45117 16.0605V20.895" stroke="black" stroke-width="1.5" stroke-linecap="round" stroke-linejoin="round"/>
<path d="M9.86773 18.4785H5.0332" stroke="black" stroke-width="1.5" stroke-linecap="round" stroke-linejoin="round"/>
</g>
<defs>
<clipPath id="clip0_3456_17473">
<rect width="24" height="24" fill="white" transform="translate(0.152344 0.427734)"/>
</clipPath>
</defs>
</svg>
